<svg width="85" height="30" fill="none" xmlns="http://www.w3.org/2000/svg"><path d="M9.376 29.988c-2.533-.1-4.605-.786-6.225-2.06a12.377 12.377 0 01-1.293-1.282C1.201 25.827.754 25.03.456 24.148c-.916-2.72-.445-6.288 1.35-10.204C3.342 10.59 5.713 7.265 9.85 2.66A250.3 250.3 0 0112.285 0c.005 0-.094.17-.219.376C10.991 2.16 10.07 4.262 9.57 6.081c-.805 2.919-.708 5.424.285 7.367.684 1.338 1.858 2.497 3.178 3.138 2.312 1.121 5.695 1.214 9.827.271.284-.065 14.381-3.771 31.327-8.235A36217.37 36217.37 0 0185 .51c.005.004-39.369 16.689-59.808 25.345-3.237 1.37-4.103 1.716-5.625 2.245-3.89 1.353-7.374 1.999-10.19 1.888z" fill="#000"/></svg>